{
	"asset":{
		"generator":"Khronos glTF Blender I/O v5.0.21",
		"version":"2.0"
	},
	"scene":0,
	"scenes":[
		{
			"name":"Scene",
			"nodes":[
				0
			]
		}
	],
	"nodes":[
		{
			"mesh":0,
			"name":"Cube.001"
		}
	],
	"materials":[
		{
			"doubleSided":true,
			"name":"Material.001",
			"normalTexture":{
				"index":0
			},
			"pbrMetallicRoughness":{
				"baseColorTexture":{
					"index":1
				},
				"metallicRoughnessTexture":{
					"index":2
				}
			}
		},
		{
			"doubleSided":true,
			"name":"Material.002",
			"pbrMetallicRoughness":{
				"baseColorFactor":[
					0.800000011920929,
					0.800000011920929,
					0.800000011920929,
					1
				],
				"metallicFactor":0.17522656917572021,
				"roughnessFactor":0.8549848794937134
			}
		},
		{
			"doubleSided":true,
			"name":"Material.003",
			"pbrMetallicRoughness":{
				"baseColorFactor":[
					0,
					0,
					0,
					1
				],
				"metallicFactor":0
			}
		}
	],
	"meshes":[
		{
			"name":"Cube.001",
			"primitives":[
				{
					"attributes":{
						"POSITION":0,
						"NORMAL":1,
						"TEXCOORD_0":2
					},
					"indices":3,
					"material":0
				},
				{
					"attributes":{
						"POSITION":4,
						"NORMAL":5,
						"TEXCOORD_0":6
					},
					"indices":7,
					"material":1
				},
				{
					"attributes":{
						"POSITION":8,
						"NORMAL":9,
						"TEXCOORD_0":10
					},
					"indices":11,
					"material":2
				}
			]
		}
	],
	"textures":[
		{
			"sampler":0,
			"source":0
		},
		{
			"sampler":0,
			"source":1
		},
		{
			"sampler":0,
			"source":2
		}
	],
	"images":[
		{
			"mimeType":"image/jpeg",
			"name":"Metal054A_1K-JPG_NormalGL",
			"uri":"Metal054A_1K-JPG_NormalGL.jpg"
		},
		{
			"mimeType":"image/jpeg",
			"name":"Metal054A_1K-JPG_Color",
			"uri":"Metal054A_1K-JPG_Color.jpg"
		},
		{
			"mimeType":"image/png",
			"name":"Metal054A_1K-JPG_Metalness-Metal054A_1K-JPG_Roughness",
			"uri":"Metal054A_1K-JPG_Metalness-Metal054A_1K-JPG_Roughness.png"
		}
	],
	"accessors":[
		{
			"bufferView":0,
			"componentType":5126,
			"count":139,
			"max":[
				0.7998863458633423,
				2.202244758605957,
				1
			],
			"min":[
				-0.7998863458633423,
				-3.202244758605957,
				-1
			],
			"type":"VEC3"
		},
		{
			"bufferView":1,
			"componentType":5126,
			"count":139,
			"type":"VEC3"
		},
		{
			"bufferView":2,
			"componentType":5126,
			"count":139,
			"type":"VEC2"
		},
		{
			"bufferView":3,
			"componentType":5123,
			"count":363,
			"type":"SCALAR"
		},
		{
			"bufferView":4,
			"componentType":5126,
			"count":152,
			"max":[
				0.7998868823051453,
				1.9785898923873901,
				0.8114159107208252
			],
			"min":[
				0.7998863458633423,
				1.4785898923873901,
				-0.8114159107208252
			],
			"type":"VEC3"
		},
		{
			"bufferView":5,
			"componentType":5126,
			"count":152,
			"type":"VEC3"
		},
		{
			"bufferView":6,
			"componentType":5126,
			"count":152,
			"type":"VEC2"
		},
		{
			"bufferView":7,
			"componentType":5123,
			"count":408,
			"type":"SCALAR"
		},
		{
			"bufferView":8,
			"componentType":5126,
			"count":72,
			"max":[
				0.7998868823051453,
				1.8479608297348022,
				0.6807869076728821
			],
			"min":[
				0.7998863458633423,
				1.6092188358306885,
				-0.6807869076728821
			],
			"type":"VEC3"
		},
		{
			"bufferView":9,
			"componentType":5126,
			"count":72,
			"type":"VEC3"
		},
		{
			"bufferView":10,
			"componentType":5126,
			"count":72,
			"type":"VEC2"
		},
		{
			"bufferView":11,
			"componentType":5123,
			"count":192,
			"type":"SCALAR"
		}
	],
	"bufferViews":[
		{
			"buffer":0,
			"byteLength":1668,
			"byteOffset":0,
			"target":34962
		},
		{
			"buffer":0,
			"byteLength":1668,
			"byteOffset":1668,
			"target":34962
		},
		{
			"buffer":0,
			"byteLength":1112,
			"byteOffset":3336,
			"target":34962
		},
		{
			"buffer":0,
			"byteLength":726,
			"byteOffset":4448,
			"target":34963
		},
		{
			"buffer":0,
			"byteLength":1824,
			"byteOffset":5176,
			"target":34962
		},
		{
			"buffer":0,
			"byteLength":1824,
			"byteOffset":7000,
			"target":34962
		},
		{
			"buffer":0,
			"byteLength":1216,
			"byteOffset":8824,
			"target":34962
		},
		{
			"buffer":0,
			"byteLength":816,
			"byteOffset":10040,
			"target":34963
		},
		{
			"buffer":0,
			"byteLength":864,
			"byteOffset":10856,
			"target":34962
		},
		{
			"buffer":0,
			"byteLength":864,
			"byteOffset":11720,
			"target":34962
		},
		{
			"buffer":0,
			"byteLength":576,
			"byteOffset":12584,
			"target":34962
		},
		{
			"buffer":0,
			"byteLength":384,
			"byteOffset":13160,
			"target":34963
		}
	],
	"samplers":[
		{
			"magFilter":9729,
			"minFilter":9987
		}
	],
	"buffers":[
		{
			"byteLength":13544,
			"uri":"box.bin"
		}
	]
}
