{
	"asset":{
		"generator":"Khronos glTF Blender I/O v4.5.48",
		"version":"2.0"
	},
	"scene":0,
	"scenes":[
		{
			"name":"Scene",
			"nodes":[
				0,
				1
			]
		}
	],
	"nodes":[
		{
			"mesh":0,
			"name":"Icosphere"
		},
		{
			"mesh":1,
			"name":"Icosphere.001"
		}
	],
	"materials":[
		{
			"doubleSided":true,
			"name":"Material.001",
			"normalTexture":{
				"index":0,
				"scale":1.0000003576278687
			},
			"pbrMetallicRoughness":{
				"baseColorTexture":{
					"index":1
				},
				"metallicRoughnessTexture":{
					"index":2
				}
			}
		},
		{
			"doubleSided":true,
			"name":"Material.002",
			"normalTexture":{
				"index":3
			},
			"occlusionTexture":{
				"index":4
			},
			"pbrMetallicRoughness":{
				"baseColorTexture":{
					"index":5
				},
				"metallicRoughnessTexture":{
					"index":6
				}
			}
		}
	],
	"meshes":[
		{
			"name":"Icosphere",
			"primitives":[
				{
					"attributes":{
						"POSITION":0,
						"NORMAL":1,
						"TEXCOORD_0":2
					},
					"indices":3,
					"material":0
				}
			]
		},
		{
			"name":"Icosphere.001",
			"primitives":[
				{
					"attributes":{
						"POSITION":4,
						"NORMAL":5,
						"TEXCOORD_0":6
					},
					"indices":7,
					"material":1
				}
			]
		}
	],
	"textures":[
		{
			"sampler":0,
			"source":0
		},
		{
			"sampler":0,
			"source":1
		},
		{
			"sampler":0,
			"source":2
		},
		{
			"sampler":0,
			"source":0
		},
		{
			"sampler":0,
			"source":3
		},
		{
			"sampler":0,
			"source":1
		},
		{
			"sampler":0,
			"source":2
		}
	],
	"images":[
		{
			"mimeType":"image/png",
			"name":"lightgold_normal-ogl",
			"uri":"lightgold_normal-ogl.png"
		},
		{
			"mimeType":"image/png",
			"name":"lightgold_albedo",
			"uri":"lightgold_albedo.png"
		},
		{
			"mimeType":"image/png",
			"name":"lightgold_roughness",
			"uri":"lightgold_roughness.png"
		},
		{
			"mimeType":"image/png",
			"name":"rustediron2_ao",
			"uri":"rustediron2_ao.png"
		}
	],
	"accessors":[
		{
			"bufferView":0,
			"componentType":5126,
			"count":10593,
			"max":[
				1.440000057220459,
				1.440000057220459,
				1.440000057220459
			],
			"min":[
				-1.440000057220459,
				-1.440000057220459,
				-1.440000057220459
			],
			"type":"VEC3"
		},
		{
			"bufferView":1,
			"componentType":5126,
			"count":10593,
			"type":"VEC3"
		},
		{
			"bufferView":2,
			"componentType":5126,
			"count":10593,
			"type":"VEC2"
		},
		{
			"bufferView":3,
			"componentType":5123,
			"count":61440,
			"type":"SCALAR"
		},
		{
			"bufferView":4,
			"componentType":5126,
			"count":729,
			"max":[
				1,
				1,
				0.9999999403953552
			],
			"min":[
				-0.9999999403953552,
				-1,
				-0.9999999403953552
			],
			"type":"VEC3"
		},
		{
			"bufferView":5,
			"componentType":5126,
			"count":729,
			"type":"VEC3"
		},
		{
			"bufferView":6,
			"componentType":5126,
			"count":729,
			"type":"VEC2"
		},
		{
			"bufferView":7,
			"componentType":5123,
			"count":3840,
			"type":"SCALAR"
		}
	],
	"bufferViews":[
		{
			"buffer":0,
			"byteLength":127116,
			"byteOffset":0,
			"target":34962
		},
		{
			"buffer":0,
			"byteLength":127116,
			"byteOffset":127116,
			"target":34962
		},
		{
			"buffer":0,
			"byteLength":84744,
			"byteOffset":254232,
			"target":34962
		},
		{
			"buffer":0,
			"byteLength":122880,
			"byteOffset":338976,
			"target":34963
		},
		{
			"buffer":0,
			"byteLength":8748,
			"byteOffset":461856,
			"target":34962
		},
		{
			"buffer":0,
			"byteLength":8748,
			"byteOffset":470604,
			"target":34962
		},
		{
			"buffer":0,
			"byteLength":5832,
			"byteOffset":479352,
			"target":34962
		},
		{
			"buffer":0,
			"byteLength":7680,
			"byteOffset":485184,
			"target":34963
		}
	],
	"samplers":[
		{
			"magFilter":9729,
			"minFilter":9987
		}
	],
	"buffers":[
		{
			"byteLength":492864,
			"uri":"gold_sphere.bin"
		}
	]
}
